<?xml version="1.0" encoding="UTF-8" standalone="no"?>
<!DOCTYPE svg PUBLIC "-//W3C//DTD SVG 1.1//EN" "http://www.w3.org/Graphics/SVG/1.1/DTD/svg11.dtd">
<svg width="100%" height="100%" viewBox="0 0 945 234" version="1.1" xmlns="http://www.w3.org/2000/svg" xmlns:xlink="http://www.w3.org/1999/xlink" xml:space="preserve" xmlns:serif="http://www.serif.com/" style="fill-rule:evenodd;clip-rule:evenodd;stroke-linejoin:round;stroke-miterlimit:2;">
    <g transform="matrix(1,0,0,1,-8,-1172)">
        <g id="Paperbark-Title" serif:id="Paperbark Title" transform="matrix(0.519533,0,0,0.376237,649.103808,598.614297)">
            <rect x="-1234" y="1524" width="1818" height="621" style="fill:none;"/>
            <clipPath id="_clip1">
                <rect x="-1234" y="1524" width="1818" height="621"/>
            </clipPath>
            <g clip-path="url(#_clip1)">
                <g transform="matrix(2.33944,0,0,3.230451,-3163.177973,455.588116)">
                    <path d="M908.757,373.612C908.757,380.153 907.334,386.572 904.487,392.871C901.641,399.17 897.856,404.833 893.132,409.86C888.407,414.887 883.017,419.005 876.961,422.215C870.904,425.425 864.666,427.212 858.246,427.575C858.125,429.755 858.034,432.511 857.974,435.842C857.913,439.173 857.701,442.656 857.338,446.289C856.974,449.923 856.459,453.557 855.793,457.191C855.127,460.825 854.158,464.096 852.886,467.003C851.614,469.91 849.979,472.272 847.98,474.089C845.982,475.906 843.529,476.814 840.622,476.814C837.23,476.814 834.535,475.694 832.536,473.453C830.538,471.212 829.024,468.517 827.994,465.367C826.964,462.218 826.268,458.917 825.904,455.465C825.541,452.013 825.299,449.075 825.178,446.653C824.935,443.14 824.784,439.688 824.723,436.296C824.663,432.905 824.633,429.452 824.633,425.94L824.633,417.127C824.633,412.827 824.663,407.922 824.723,402.41C824.784,396.899 824.875,391.145 824.996,385.149C825.117,379.153 825.299,373.581 825.541,368.433C825.783,363.285 826.056,358.894 826.359,355.26C826.661,351.626 827.055,349.507 827.54,348.901C827.661,348.78 828.024,348.507 828.63,348.083C829.235,347.659 829.902,347.235 830.628,346.812C831.355,346.388 832.021,345.994 832.627,345.63C833.233,345.267 833.657,345.025 833.899,344.904C839.471,341.754 845.588,339.029 852.25,336.727C858.912,334.426 865.514,333.275 872.055,333.275C877.627,333.275 882.684,334.396 887.226,336.637C891.769,338.878 895.645,341.845 898.855,345.54C902.065,349.234 904.518,353.534 906.214,358.44C907.909,363.346 908.757,368.403 908.757,373.612ZM877.324,377.791C877.324,375.368 876.749,373.248 875.598,371.431C874.447,369.614 872.539,368.706 869.875,368.706C867.573,368.706 865.272,369.16 862.97,370.068C860.669,370.977 858.549,371.916 856.611,372.885C856.974,377.124 857.307,381.243 857.61,385.24C857.913,389.237 857.943,393.356 857.701,397.595C859.639,396.626 861.759,395.506 864.06,394.234C866.362,392.962 868.482,391.539 870.42,389.964C872.358,388.389 873.993,386.603 875.325,384.604C876.658,382.605 877.324,380.334 877.324,377.791Z" style="fill:white;fill-rule:nonzero;"/>
                    <path d="M990.338,445.381C990.338,447.561 990.247,450.408 990.066,453.921C989.884,457.433 989.369,460.855 988.521,464.186C987.673,467.518 986.341,470.394 984.524,472.817C982.707,475.24 980.163,476.451 976.893,476.451C972.411,476.451 968.959,474.997 966.536,472.09C964.114,469.183 962.963,465.549 963.084,461.188C959.208,464.58 954.817,467.245 949.911,469.183C945.005,471.121 940.009,472.09 934.921,472.09C931.409,472.09 928.078,471.242 924.928,469.546C921.779,467.851 918.993,465.67 916.57,463.005C914.148,460.341 912.209,457.343 910.756,454.012C909.302,450.68 908.576,447.38 908.576,444.109C908.576,438.295 910.362,433.207 913.936,428.847C917.509,424.486 921.9,420.761 927.108,417.673C932.317,414.584 937.859,412.131 943.734,410.314C949.608,408.497 954.847,407.286 959.45,406.68C959.45,406.074 959.48,405.529 959.541,405.045C959.602,404.56 959.632,404.015 959.632,403.409C959.632,399.654 958.602,396.626 956.543,394.325C954.484,392.023 951.577,390.873 947.822,390.873C944.793,390.873 942.189,391.387 940.009,392.417C937.828,393.447 935.769,394.597 933.831,395.869C931.893,397.141 929.955,398.292 928.017,399.321C926.079,400.351 923.899,400.866 921.476,400.866C918.811,400.866 916.54,400.018 914.662,398.322C912.785,396.626 911.846,394.446 911.846,391.781C911.846,387.784 913.027,384.15 915.389,380.879C917.751,377.609 920.719,374.853 924.292,372.612C927.866,370.371 931.742,368.615 935.921,367.343C940.1,366.071 943.946,365.435 947.458,365.435C950.729,365.435 953.999,365.829 957.27,366.616C960.54,367.404 963.629,368.615 966.536,370.25C969.443,371.885 972.078,373.884 974.44,376.246C976.802,378.608 978.71,381.364 980.163,384.513C982.344,388.995 984.1,393.749 985.433,398.776C986.765,403.803 987.795,408.951 988.521,414.22C989.248,419.489 989.733,424.759 989.975,430.028C990.217,435.297 990.338,440.415 990.338,445.381ZM961.267,439.567L960.722,427.212C960.48,427.212 960.238,427.181 959.995,427.121C959.753,427.06 959.511,427.03 959.268,427.03C957.694,427.03 955.725,427.423 953.363,428.211C951.001,428.998 948.73,430.088 946.55,431.481C944.37,432.874 942.522,434.419 941.008,436.115C939.494,437.81 938.737,439.567 938.737,441.384C938.737,443.08 939.343,444.23 940.554,444.836C941.765,445.442 943.158,445.744 944.733,445.744C947.398,445.744 950.244,445.048 953.273,443.655C956.301,442.262 958.966,440.899 961.267,439.567Z" style="fill:white;fill-rule:nonzero;"/>
                    <path d="M1084.456,416.855C1084.456,422.185 1083.881,428.029 1082.73,434.388C1081.579,440.748 1079.641,446.653 1076.916,452.104C1074.191,457.555 1070.617,462.097 1066.196,465.731C1061.775,469.365 1056.233,471.182 1049.571,471.182C1047.875,471.182 1046.119,471.061 1044.302,470.818C1042.485,470.576 1040.759,470.152 1039.123,469.546C1037.488,468.941 1036.004,468.123 1034.672,467.094C1033.339,466.064 1032.31,464.701 1031.583,463.005L1029.948,489.169C1029.827,491.955 1029.736,495.287 1029.675,499.163C1029.615,503.039 1029.13,506.733 1028.222,510.246C1027.313,513.759 1025.799,516.757 1023.679,519.24C1021.56,521.723 1018.501,522.965 1014.504,522.965C1012.202,522.965 1010.264,521.784 1008.69,519.422C1007.115,517.06 1005.873,514.062 1004.965,510.428C1004.056,506.794 1003.36,502.736 1002.875,498.254C1002.391,493.772 1002.088,489.472 1001.967,485.354C1001.846,481.235 1001.785,477.48 1001.785,474.089L1001.785,466.639C1001.785,458.524 1001.725,450.438 1001.603,442.383C1001.482,434.328 1001.422,426.242 1001.422,418.127L1001.422,411.313C1001.422,408.224 1001.543,404.863 1001.785,401.229C1002.027,397.595 1002.421,393.84 1002.966,389.964C1003.511,386.088 1004.329,382.545 1005.419,379.335C1006.509,376.125 1007.902,373.521 1009.598,371.522C1011.294,369.523 1013.353,368.524 1015.776,368.524C1017.35,368.524 1018.774,368.978 1020.045,369.887C1021.317,370.795 1022.407,371.946 1023.316,373.339C1024.224,374.732 1024.981,376.216 1025.587,377.791C1026.193,379.365 1026.677,380.819 1027.041,382.151C1030.796,377.912 1035.126,374.702 1040.032,372.521C1044.938,370.341 1050.177,369.251 1055.748,369.251C1061.563,369.251 1066.317,370.886 1070.012,374.157C1073.706,377.427 1076.613,381.485 1078.733,386.33C1080.853,391.175 1082.337,396.354 1083.184,401.865C1084.032,407.376 1084.456,412.373 1084.456,416.855ZM1058.474,415.401C1058.474,413.584 1058.323,411.737 1058.02,409.86C1057.717,407.982 1057.172,406.226 1056.384,404.591C1055.597,402.955 1054.477,401.623 1053.023,400.593C1051.57,399.564 1049.753,399.049 1047.572,399.049C1044.665,399.049 1041.607,399.988 1038.397,401.865C1035.187,403.743 1032.794,405.893 1031.22,408.315C1030.614,409.284 1030.251,410.859 1030.13,413.039C1030.008,415.22 1029.948,416.855 1029.948,417.945C1029.948,418.793 1029.978,419.913 1030.039,421.306C1030.099,422.699 1030.19,424.123 1030.311,425.576C1030.432,427.03 1030.584,428.423 1030.765,429.755C1030.947,431.088 1031.22,432.117 1031.583,432.844C1031.946,433.934 1032.734,434.934 1033.945,435.842C1035.156,436.751 1036.489,437.568 1037.942,438.295C1039.396,439.022 1040.88,439.567 1042.394,439.93C1043.908,440.294 1045.21,440.475 1046.3,440.475C1048.844,440.475 1050.903,439.506 1052.478,437.568C1054.053,435.63 1055.294,433.329 1056.203,430.664C1057.111,427.999 1057.717,425.243 1058.02,422.397C1058.323,419.55 1058.474,417.218 1058.474,415.401Z" style="fill:white;fill-rule:nonzero;"/>
                    <path d="M1171.67,438.658C1171.67,442.777 1170.368,446.804 1167.763,450.741C1165.159,454.678 1161.889,458.191 1157.952,461.279C1154.015,464.368 1149.806,466.851 1145.324,468.729C1140.842,470.606 1136.724,471.545 1132.969,471.545C1126.549,471.545 1120.826,469.94 1115.799,466.73C1110.772,463.52 1106.563,459.432 1103.171,454.466C1099.779,449.499 1097.205,444.018 1095.449,438.022C1093.692,432.026 1092.814,426.182 1092.814,420.489C1092.814,414.432 1093.662,407.952 1095.358,401.047C1097.054,394.143 1099.628,387.784 1103.08,381.969C1106.532,376.155 1110.893,371.31 1116.162,367.434C1121.431,363.558 1127.7,361.62 1134.967,361.62C1139.086,361.62 1143.023,362.316 1146.778,363.709C1150.533,365.102 1153.803,367.071 1156.589,369.614C1159.375,372.158 1161.616,375.186 1163.312,378.699C1165.008,382.212 1165.856,386.148 1165.856,390.509C1165.856,396.202 1164.644,401.532 1162.222,406.498C1159.799,411.465 1156.589,415.765 1152.592,419.399C1148.595,423.033 1143.992,425.97 1138.783,428.211C1133.574,430.452 1128.245,431.693 1122.794,431.936C1123.278,435.448 1124.702,437.992 1127.064,439.567C1129.426,441.141 1132.242,441.929 1135.513,441.929C1137.935,441.929 1140.297,441.323 1142.599,440.112C1144.9,438.901 1147.141,437.538 1149.321,436.024C1151.502,434.51 1153.652,433.147 1155.772,431.936C1157.891,430.724 1160.041,430.119 1162.222,430.119C1164.644,430.119 1166.825,430.906 1168.763,432.481C1170.701,434.055 1171.67,436.115 1171.67,438.658ZM1142.235,394.143C1142.235,392.568 1141.811,390.933 1140.963,389.237C1140.116,387.541 1138.783,386.694 1136.966,386.694C1134.301,386.694 1132.06,387.39 1130.243,388.783C1128.426,390.176 1126.912,391.932 1125.701,394.052C1124.49,396.172 1123.551,398.443 1122.885,400.866C1122.219,403.288 1121.825,405.529 1121.704,407.588C1123.4,407.225 1125.428,406.741 1127.791,406.135C1130.153,405.529 1132.393,404.712 1134.513,403.682C1136.633,402.652 1138.45,401.35 1139.964,399.776C1141.478,398.201 1142.235,396.323 1142.235,394.143Z" style="fill:white;fill-rule:nonzero;"/>
                    <path d="M1241.986,403.046C1240.29,403.167 1238.836,403.016 1237.625,402.592C1236.414,402.168 1235.203,401.714 1233.991,401.229C1232.901,400.745 1231.811,400.29 1230.721,399.866C1229.631,399.442 1228.419,399.291 1227.087,399.412C1224.664,399.533 1222.514,400.2 1220.637,401.411C1218.759,402.622 1217.063,404.136 1215.549,405.953C1214.035,407.77 1212.733,409.799 1211.643,412.04C1210.553,414.281 1209.705,416.492 1209.099,418.672C1208.736,420.125 1208.463,422.336 1208.281,425.304C1208.1,428.271 1208.009,431.451 1208.009,434.843C1207.888,438.355 1207.827,441.687 1207.827,444.836C1207.827,447.985 1207.706,450.468 1207.464,452.285C1207.343,454.224 1207.04,456.495 1206.555,459.099C1206.071,461.703 1205.314,464.156 1204.284,466.458C1203.254,468.759 1201.892,470.697 1200.196,472.272C1198.5,473.847 1196.32,474.634 1193.655,474.634C1191.596,474.634 1189.809,474.028 1188.295,472.817C1186.781,471.606 1185.509,470.001 1184.479,468.002C1183.45,466.003 1182.602,463.672 1181.936,461.007C1181.269,458.342 1180.755,455.616 1180.391,452.831C1180.028,449.923 1179.755,447.016 1179.574,444.109C1179.392,441.202 1179.271,438.446 1179.21,435.842C1179.15,433.238 1179.15,430.845 1179.21,428.665C1179.271,426.485 1179.301,424.728 1179.301,423.396C1179.18,419.156 1178.968,414.887 1178.665,410.586C1178.362,406.286 1178.211,402.016 1178.211,397.777C1178.211,395.112 1178.332,392.144 1178.574,388.874C1178.817,385.603 1179.483,382.545 1180.573,379.698C1181.663,376.852 1183.268,374.459 1185.388,372.521C1187.508,370.583 1190.445,369.614 1194.2,369.614C1196.259,369.614 1198.016,370.28 1199.469,371.613C1200.923,372.945 1202.104,374.581 1203.012,376.519C1203.921,378.457 1204.617,380.516 1205.102,382.696C1205.586,384.877 1205.889,386.875 1206.01,388.692C1208.917,383.968 1212.188,380.122 1215.822,377.155C1219.456,374.187 1224.18,372.582 1229.994,372.34C1232.901,372.219 1235.778,372.491 1238.624,373.157C1241.471,373.823 1244.075,374.914 1246.437,376.428C1248.799,377.942 1250.737,379.91 1252.252,382.333C1253.766,384.755 1254.583,387.602 1254.704,390.873C1254.947,394.749 1253.796,397.716 1251.252,399.776C1248.709,401.835 1245.62,402.925 1241.986,403.046Z" style="fill:white;fill-rule:nonzero;"/>
                    <path d="M1343.372,411.041C1343.372,414.553 1343.099,418.52 1342.554,422.942C1342.009,427.363 1341.161,431.875 1340.01,436.478C1338.859,441.081 1337.345,445.563 1335.468,449.923C1333.59,454.284 1331.289,458.191 1328.563,461.643C1325.838,465.095 1322.689,467.851 1319.115,469.91C1315.542,471.969 1311.393,472.999 1306.669,472.999C1301.703,472.999 1297.191,471.848 1293.133,469.546C1289.075,467.245 1285.593,464.096 1282.685,460.098C1282.322,463.369 1280.99,466.246 1278.688,468.729C1276.387,471.212 1273.48,472.454 1269.967,472.454C1267.908,472.454 1266.181,471.424 1264.789,469.365C1263.396,467.306 1262.275,464.671 1261.427,461.461C1260.579,458.251 1259.943,454.708 1259.519,450.832C1259.095,446.956 1258.823,443.201 1258.702,439.567C1258.581,435.933 1258.52,432.662 1258.52,429.755L1258.52,423.578C1258.52,419.459 1258.55,415.341 1258.611,411.222C1258.671,407.104 1258.762,402.925 1258.883,398.685C1258.883,396.626 1258.853,393.537 1258.793,389.419C1258.732,385.301 1258.762,380.728 1258.883,375.701C1259.005,370.674 1259.277,365.526 1259.701,360.257C1260.125,354.988 1260.882,350.173 1261.972,345.812C1263.062,341.452 1264.577,337.878 1266.515,335.092C1268.453,332.306 1270.936,330.853 1273.964,330.732C1276.387,330.732 1278.446,331.579 1280.142,333.275C1281.838,334.971 1283.261,337.212 1284.412,339.998C1285.562,342.784 1286.471,345.903 1287.137,349.355C1287.803,352.807 1288.288,356.26 1288.591,359.712C1288.893,363.164 1289.075,366.435 1289.136,369.523C1289.196,372.612 1289.226,375.126 1289.226,377.064C1289.226,377.427 1289.196,378.245 1289.136,379.517C1289.075,380.788 1289.045,382.151 1289.045,383.605L1289.045,389.419C1290.135,387.118 1291.71,384.877 1293.769,382.696C1295.828,380.516 1298.13,378.578 1300.673,376.882C1303.217,375.186 1305.882,373.793 1308.668,372.703C1311.454,371.613 1314.119,371.068 1316.662,371.068C1321.75,371.068 1326.02,372.37 1329.472,374.974C1332.924,377.579 1335.68,380.879 1337.739,384.877C1339.798,388.874 1341.252,393.204 1342.1,397.868C1342.948,402.531 1343.372,406.922 1343.372,411.041ZM1316.662,416.492C1316.662,415.038 1316.572,413.463 1316.39,411.767C1316.208,410.072 1315.784,408.497 1315.118,407.043C1314.452,405.59 1313.543,404.379 1312.393,403.409C1311.242,402.44 1309.758,401.956 1307.941,401.956C1306.003,401.956 1304.095,402.38 1302.218,403.228C1300.34,404.076 1298.553,405.166 1296.858,406.498C1295.162,407.831 1293.587,409.254 1292.134,410.768C1290.68,412.282 1289.408,413.766 1288.318,415.22L1286.501,431.391C1288.439,434.176 1290.801,436.387 1293.587,438.022C1296.373,439.658 1299.523,440.475 1303.035,440.475C1305.7,440.475 1307.911,439.627 1309.667,437.932C1311.424,436.236 1312.817,434.146 1313.846,431.663C1314.876,429.18 1315.603,426.545 1316.026,423.759C1316.45,420.973 1316.662,418.551 1316.662,416.492Z" style="fill:white;fill-rule:nonzero;"/>
                    <path d="M1431.675,445.381C1431.675,447.561 1431.584,450.408 1431.403,453.921C1431.221,457.433 1430.706,460.855 1429.858,464.186C1429.01,467.518 1427.678,470.394 1425.861,472.817C1424.044,475.24 1421.5,476.451 1418.23,476.451C1413.748,476.451 1410.296,474.997 1407.873,472.09C1405.451,469.183 1404.3,465.549 1404.421,461.188C1400.545,464.58 1396.154,467.245 1391.248,469.183C1386.342,471.121 1381.346,472.09 1376.258,472.09C1372.746,472.09 1369.415,471.242 1366.265,469.546C1363.116,467.851 1360.33,465.67 1357.907,463.005C1355.485,460.341 1353.546,457.343 1352.093,454.012C1350.639,450.68 1349.913,447.38 1349.913,444.109C1349.913,438.295 1351.699,433.207 1355.273,428.847C1358.846,424.486 1363.237,420.761 1368.445,417.673C1373.654,414.584 1379.196,412.131 1385.071,410.314C1390.945,408.497 1396.184,407.286 1400.787,406.68C1400.787,406.074 1400.817,405.529 1400.878,405.045C1400.939,404.56 1400.969,404.015 1400.969,403.409C1400.969,399.654 1399.939,396.626 1397.88,394.325C1395.821,392.023 1392.914,390.873 1389.159,390.873C1386.13,390.873 1383.526,391.387 1381.346,392.417C1379.165,393.447 1377.106,394.597 1375.168,395.869C1373.23,397.141 1371.292,398.292 1369.354,399.321C1367.416,400.351 1365.236,400.866 1362.813,400.866C1360.148,400.866 1357.877,400.018 1355.999,398.322C1354.122,396.626 1353.183,394.446 1353.183,391.781C1353.183,387.784 1354.364,384.15 1356.726,380.879C1359.088,377.609 1362.056,374.853 1365.629,372.612C1369.203,370.371 1373.079,368.615 1377.258,367.343C1381.437,366.071 1385.283,365.435 1388.795,365.435C1392.066,365.435 1395.336,365.829 1398.607,366.616C1401.877,367.404 1404.966,368.615 1407.873,370.25C1410.78,371.885 1413.415,373.884 1415.777,376.246C1418.139,378.608 1420.047,381.364 1421.5,384.513C1423.681,388.995 1425.437,393.749 1426.77,398.776C1428.102,403.803 1429.132,408.951 1429.858,414.22C1430.585,419.489 1431.07,424.759 1431.312,430.028C1431.554,435.297 1431.675,440.415 1431.675,445.381ZM1402.604,439.567L1402.059,427.212C1401.817,427.212 1401.575,427.181 1401.332,427.121C1401.09,427.06 1400.848,427.03 1400.605,427.03C1399.031,427.03 1397.062,427.423 1394.7,428.211C1392.338,428.998 1390.067,430.088 1387.887,431.481C1385.706,432.874 1383.859,434.419 1382.345,436.115C1380.831,437.81 1380.074,439.567 1380.074,441.384C1380.074,443.08 1380.68,444.23 1381.891,444.836C1383.102,445.442 1384.495,445.744 1386.07,445.744C1388.735,445.744 1391.581,445.048 1394.61,443.655C1397.638,442.262 1400.303,440.899 1402.604,439.567Z" style="fill:white;fill-rule:nonzero;"/>
                    <path d="M1505.625,403.046C1503.929,403.167 1502.476,403.016 1501.264,402.592C1500.053,402.168 1498.842,401.714 1497.631,401.229C1496.54,400.745 1495.45,400.29 1494.36,399.866C1493.27,399.442 1492.059,399.291 1490.726,399.412C1488.304,399.533 1486.153,400.2 1484.276,401.411C1482.398,402.622 1480.703,404.136 1479.189,405.953C1477.674,407.77 1476.372,409.799 1475.282,412.04C1474.192,414.281 1473.344,416.492 1472.738,418.672C1472.375,420.125 1472.102,422.336 1471.921,425.304C1471.739,428.271 1471.648,431.451 1471.648,434.843C1471.527,438.355 1471.466,441.687 1471.466,444.836C1471.466,447.985 1471.345,450.468 1471.103,452.285C1470.982,454.224 1470.679,456.495 1470.195,459.099C1469.71,461.703 1468.953,464.156 1467.923,466.458C1466.894,468.759 1465.531,470.697 1463.835,472.272C1462.139,473.847 1459.959,474.634 1457.294,474.634C1455.235,474.634 1453.448,474.028 1451.934,472.817C1450.42,471.606 1449.148,470.001 1448.119,468.002C1447.089,466.003 1446.241,463.672 1445.575,461.007C1444.909,458.342 1444.394,455.616 1444.031,452.831C1443.667,449.923 1443.395,447.016 1443.213,444.109C1443.031,441.202 1442.91,438.446 1442.85,435.842C1442.789,433.238 1442.789,430.845 1442.85,428.665C1442.91,426.485 1442.94,424.728 1442.94,423.396C1442.819,419.156 1442.607,414.887 1442.304,410.586C1442.002,406.286 1441.85,402.016 1441.85,397.777C1441.85,395.112 1441.971,392.144 1442.214,388.874C1442.456,385.603 1443.122,382.545 1444.212,379.698C1445.302,376.852 1446.907,374.459 1449.027,372.521C1451.147,370.583 1454.084,369.614 1457.839,369.614C1459.899,369.614 1461.655,370.28 1463.109,371.613C1464.562,372.945 1465.743,374.581 1466.652,376.519C1467.56,378.457 1468.257,380.516 1468.741,382.696C1469.226,384.877 1469.528,386.875 1469.65,388.692C1472.557,383.968 1475.827,380.122 1479.461,377.155C1483.095,374.187 1487.819,372.582 1493.633,372.34C1496.54,372.219 1499.417,372.491 1502.264,373.157C1505.11,373.823 1507.715,374.914 1510.077,376.428C1512.439,377.942 1514.377,379.91 1515.891,382.333C1517.405,384.755 1518.223,387.602 1518.344,390.873C1518.586,394.749 1517.435,397.716 1514.892,399.776C1512.348,401.835 1509.259,402.925 1505.625,403.046Z" style="fill:white;fill-rule:nonzero;"/>
                    <path d="M1601.742,373.248C1601.742,376.64 1600.864,380.092 1599.107,383.605C1597.351,387.118 1595.231,390.6 1592.748,394.052C1590.265,397.504 1587.66,400.775 1584.935,403.864C1582.21,406.953 1579.817,409.769 1577.758,412.313C1579.454,414.977 1581.574,418.52 1584.117,422.942C1586.661,427.363 1589.084,432.057 1591.385,437.023C1593.687,441.989 1595.655,446.835 1597.29,451.559C1598.925,456.283 1599.743,460.219 1599.743,463.369C1599.743,465.913 1598.956,468.244 1597.381,470.364C1595.806,472.484 1593.626,473.544 1590.84,473.544C1588.781,473.544 1586.691,472.666 1584.572,470.909C1582.452,469.153 1580.332,466.851 1578.212,464.005C1576.092,461.158 1574.064,457.979 1572.125,454.466C1570.187,450.953 1568.401,447.501 1566.765,444.109C1565.13,440.718 1563.677,437.538 1562.405,434.57C1561.133,431.602 1560.134,429.21 1559.407,427.393C1557.832,428.968 1556.167,430.27 1554.41,431.3C1552.654,432.329 1550.928,433.51 1549.232,434.843C1549.232,437.386 1549.141,440.96 1548.959,445.563C1548.778,450.166 1548.233,454.708 1547.324,459.19C1546.416,463.672 1544.932,467.578 1542.873,470.909C1540.813,474.24 1537.785,475.906 1533.788,475.906C1530.638,475.906 1528.216,474.482 1526.52,471.636C1524.824,468.789 1523.583,465.458 1522.795,461.643C1522.008,457.827 1521.554,453.951 1521.433,450.014C1521.311,446.078 1521.251,443.08 1521.251,441.02C1521.251,432.057 1521.493,423.093 1521.978,414.129C1522.462,405.166 1522.765,396.202 1522.886,387.239C1522.886,385.179 1522.916,382.484 1522.977,379.153C1523.038,375.822 1523.25,372.219 1523.613,368.342C1523.976,364.466 1524.521,360.529 1525.248,356.532C1525.975,352.535 1527.005,348.931 1528.337,345.721C1529.669,342.511 1531.396,339.907 1533.515,337.908C1535.635,335.91 1538.209,334.91 1541.237,334.91C1543.418,334.91 1545.265,335.728 1546.779,337.363C1548.293,338.999 1549.504,341.088 1550.413,343.632C1551.321,346.176 1551.988,349.022 1552.412,352.172C1552.836,355.321 1553.138,358.44 1553.32,361.529C1553.502,364.618 1553.593,367.494 1553.593,370.159L1553.593,376.519C1553.593,377.609 1553.562,379.214 1553.502,381.334C1553.441,383.453 1553.381,385.664 1553.32,387.965C1553.259,390.267 1553.229,392.387 1553.229,394.325C1553.229,396.263 1553.35,397.656 1553.593,398.504C1554.441,398.504 1555.712,397.686 1557.408,396.051C1559.104,394.416 1561.072,392.326 1563.313,389.782C1565.554,387.239 1567.977,384.543 1570.581,381.697C1573.185,378.85 1575.85,376.155 1578.576,373.612C1581.301,371.068 1583.996,368.978 1586.661,367.343C1589.326,365.708 1591.809,364.89 1594.111,364.89C1596.533,364.89 1598.411,365.738 1599.743,367.434C1601.076,369.13 1601.742,371.068 1601.742,373.248Z" style="fill:white;fill-rule:nonzero;"/>
                </g>
            </g>
        </g>
    </g>
</svg>
